<?xml version="1.0" encoding="UTF-8"?>
<svg xmlns="http://www.w3.org/2000/svg" xmlns:xlink="http://www.w3.org/1999/xlink" viewBox="0 0 150 150" width="150px" height="150px">
<g id="surface4591077">
<path style=" stroke:none;fill-rule:nonzero;fill:rgb(92.54902%,0%,0%);fill-opacity:1;" d="M 75.027344 5.945312 C 36.964844 5.945312 6 36.910156 6 74.972656 C 6 113.035156 36.964844 144 75.027344 144 C 113.089844 144 144.054688 113.035156 144.054688 74.972656 C 144.054688 36.910156 113.089844 5.945312 75.027344 5.945312 Z M 104.242188 106 C 103.378906 107.300781 101.949219 108.003906 100.492188 108.003906 C 99.636719 108.003906 98.769531 107.761719 98 107.246094 C 90.582031 102.300781 78 99 67.5 99.003906 C 56.359375 99.007812 48.007812 101.746094 47.921875 101.773438 C 45.570312 102.570312 43.015625 101.285156 42.230469 98.929688 C 41.445312 96.570312 42.71875 94.019531 45.078125 93.238281 C 45.472656 93.105469 54.914062 90.011719 67.5 90.007812 C 78 90 92.605469 92.832031 102.996094 99.757812 C 105.066406 101.140625 105.625 103.933594 104.242188 106 Z M 113.21875 87.578125 C 112.246094 89.144531 110.5625 90.007812 108.84375 90.007812 C 107.914062 90.007812 106.972656 89.757812 106.125 89.226562 C 92.671875 80.84375 78.847656 79.070312 66.9375 79.175781 C 53.492188 79.296875 42.742188 81.859375 42.558594 81.914062 C 39.835938 82.6875 36.976562 81.097656 36.199219 78.367188 C 35.421875 75.628906 37.015625 72.78125 39.75 72.007812 C 40.582031 71.769531 51.3125 69.128906 66.003906 69.007812 C 79.398438 68.894531 96.089844 70.835938 111.574219 80.484375 C 113.984375 81.984375 114.726562 85.164062 113.21875 87.578125 Z M 122.175781 66.039062 C 121.054688 67.941406 119.050781 69 116.992188 69 C 115.960938 69 114.917969 68.734375 113.960938 68.175781 C 98.28125 58.972656 79.222656 57.019531 65.992188 57 C 65.929688 57 65.863281 57 65.800781 57 C 49.804688 57 37.480469 59.8125 37.359375 59.84375 C 34.125 60.585938 30.90625 58.585938 30.15625 55.359375 C 29.40625 52.132812 31.40625 48.910156 34.632812 48.160156 C 35.1875 48.03125 48.351562 45 65.800781 45 C 65.871094 45 65.941406 45 66.007812 45 C 80.722656 45.019531 102.042969 47.257812 120.039062 57.824219 C 122.894531 59.503906 123.851562 63.183594 122.175781 66.039062 Z M 122.175781 66.039062 "/>
</g>
</svg>
